<svg xmlns="http://www.w3.org/2000/svg" width="24" height="24" fill="none" viewBox="0 0 24 24"><path fill="#82AFFB" d="M5.003 2.667a3.666 3.666 0 0 0-3.667 3.667v11.333a3.666 3.666 0 0 0 3.667 3.667h14a3.666 3.666 0 0 0 3.666-3.667V6.334a3.666 3.666 0 0 0-3.666-3.667z"></path><path fill="#1066F1" fill-rule="evenodd" d="M18.117 6.773a1 1 0 0 1 .447 1.341l-3 6a1 1 0 0 1-1.752.068l-1.122-1.87-1.82 3.185a1 1 0 0 1-1.648.128l-.587-.733-1.546 1.767a1 1 0 0 1-1.506-1.317l2.334-2.667a1 1 0 0 1 1.533.034l.414.518 1.937-3.39a1 1 0 0 1 1.726-.018l1.063 1.772 2.185-4.371a1 1 0 0 1 1.342-.447" clip-rule="evenodd"></path><path fill="#1066F1" d="M5.672 8a1 1 0 1 0 0-2 1 1 0 0 0 0 2M9 8a1 1 0 1 0 0-2 1 1 0 0 0 0 2"></path></svg>
